/* XPM */
static char *_553fc0d75a343e7afe16efbf4a202e3FSnyyXrsOqG4EMOk[] = {
/* columns rows colors chars-per-pixel */
"64 64 109 2 ",
"   c black",
".  c gray6",
"X  c #08223C",
"o  c gray20",
"O  c #082642",
"+  c #092846",
"@  c #082A4C",
"#  c #132C44",
"$  c #102C49",
"%  c #1B334B",
"&  c #092E53",
"*  c #093057",
"=  c #093158",
"-  c #173656",
";  c #1D3B57",
":  c #143759",
">  c #153A5E",
",  c #1B3D5C",
"<  c #20364B",
"1  c #233C55",
"2  c #283F56",
"3  c #303F51",
"4  c #1C3E61",
"5  c #264059",
"6  c #2B4259",
"7  c #32475E",
"8  c #34495D",
"9  c #1F4467",
"0  c #224364",
"q  c #2B4B6A",
"w  c #3B4E63",
"e  c #354F69",
"r  c #3B5065",
"t  c #3E546A",
"y  c #335575",
"u  c #3A5875",
"i  c #4E4E4E",
"p  c #51565D",
"a  c #57595E",
"s  c #495C6F",
"d  c #556575",
"f  c #56697C",
"g  c #5C6D7E",
"h  c #5F707F",
"j  c #616468",
"k  c #C22727",
"l  c #C22F2F",
"z  c #C23535",
"x  c #C33B3B",
"c  c #C34040",
"v  c #C44E4E",
"b  c #C66565",
"n  c #C66B6B",
"m  c #526A83",
"M  c #5E7691",
"N  c #647485",
"B  c #61778D",
"V  c #697D92",
"C  c #79848E",
"Z  c #8E8E8E",
"A  c #93989C",
"S  c #9B9D9E",
"D  c #8F9AA6",
"F  c #8B9AA8",
"G  c #909BA7",
"H  c #97A3AD",
"J  c #9FAAB5",
"K  c #A7A7A7",
"L  c #A0A7AE",
"P  c #ABABAB",
"I  c #A7B1BB",
"U  c #A9B2BB",
"Y  c #B3B3B3",
"T  c #B7BBBF",
"R  c #BCBCBC",
"E  c #CA8F8F",
"W  c #CB9A9A",
"Q  c #CEAAAA",
"!  c #CFB4B4",
"~  c #D0B9B9",
"^  c #AEBAC7",
"/  c #B6BDC4",
"(  c #B9BDC0",
")  c #BEC1C5",
"_  c #BBC5CD",
"`  c #C4C4C4",
"'  c #C5C7C9",
"]  c #C4C9CD",
"[  c #CACACA",
"{  c #D2CBCB",
"}  c #C5CBD1",
"|  c #CDCFD2",
" . c #CFD2D5",
".. c #D4D4D4",
"X. c #D2D6DB",
"o. c gray86",
"O. c #D9DDE1",
"+. c #DFE2E6",
"@. c #E4E4E4",
"#. c #EAECEE",
"$. c #EEEFF1",
"%. c #F2F3F4",
"&. c #F4F4F4",
"*. c #F4F5F6",
"=. c #F6F7F8",
"-. c #F7F8F9",
";. c #F8F8F8",
":. c #FBFCFC",
">. c white",
/* pixels */
"X X X X X X X X X X X X X X X X X X X X X X X X X X X X X X X X X X X G g X X X X X X X X X X X X X X X X X X X X X X X X X X X ",
"X X X X X X X X X X X X X X X X X X X X X X X X X X X X X X X X X X f >.>.X X X X X X X X X X X X X X X X X X X X X X X X X X X ",
"X X X X X X X X X X X X X X X X X X X X X X X X X X X X X X X X X X s / } X X X X X X X X X X X X X X X X X X X X X X X X X X X ",
"X X X X X X X X X X X X X X X X X X X X X X X X X X X X X X X X X X # 6 X X X X X X X X X X X X X X X X X X X X X X X X X X X X ",
"X X X X X X X X X X X X X X X X X X X X X X X X X X X X X X X X X X X X X X X X X X X X X X X X X X X X X X X X X X X X X X X X ",
"X X X X X X X X X X X X X X X X X X X X X X X X X X X X X X X X X X X X X X X X X X X X X X X X X X X X X X X X X X X X X X X X ",
"X X X X X X X X X X X X X X X X X X X X X X X X X X X X X X X X X X X X X X X X X X X X X X X X X X X X X X X X X X X X X X X X ",
"X X X X X X X X X % N X X X X X X X X X X X X X X X X X X X X X X X X X X X X X X X X X X X X X X X X X X X X X X X X X X X X X ",
"X X X X X X X X X >.>.2 X X X X X X X X X X X X X X X X X X X X ............d X X X X X X X X X X X X X X X X X X X X X X X X X ",
"X X X X X X X X X >.>.7 X X X X X X X X X X X X X X X X X X ........................X X X X X X X X X X X X X X X X X X X X X X ",
"X X X X X X X X X # H X X X X X X X X X X X X X X X X X X # ............................X X X X X X X X X X X X X X X X X X X X ",
"X X X X X X X X X X X X X X X X X X X X X X X X X X X X X ................................X X X X X X X X X X X X X X X X X X X ",
"X X X X X X X X X X X X X X X X X X X X X X X X X X X ......................................X X X X X X X X X X X X X X X X X X ",
"X X X X X X X X X X X X X X X X X X X X X X X X X X ..........................................X X X X #.>.X X X X X X X X X X X ",
"X X X X X X X X X X X X X X X X X X X X X X X # X ............................................w X X X +.>.r X X X X X X X X X X ",
"X X X X X X X X X X X X X X X X X X X X X X a a a ............P P P ............................X X X :.>.$.X X X X X X X X X X ",
"O O O O O O O O 6 O O X O O O O O O O O O + a a a ........R K K K K K ......P K P ..............O O O O _ 1 O O O O O O O O O O ",
"O O O O O O @.*.>.;.h X O O O O O O O O O + a a j ........K K o   K K ......K i Z K ` ..........O O O O O O O O O O O O O O O O ",
"O O O O | >.>.>.>.>.>.O O O O O O O O O O O a a a ........R K K S R ....P K K   . K K ..........a 3 O O O O O O O O O O O O O O ",
"] O O + >.>...O $ >.>.I O O O O O O O O O O a a ..............Y K ..........K P K K P K ......Y a a a O O O O O O O O O O O O O ",
"....t *.>. .O O O >.>.*.O O O O O O O O O O O a S ..............K ..............[ ` ..........a a p a < O O O O O O O O O O O O ",
";...>.>.>.+ + + + @.>.=.+ + + + + + + + + + + 1 ..............................................a a a a O O O O O O O O O O O O O ",
">.>.>.#.+ + + + + ..>._ + + + + + + + + + + + + ..............................................a a a p + + + + + + + + + + + + + ",
"@.o...@ @ @ @ @ @ ..>.- @ @ @ @ @ @ @ @ @ @ @ @ ................v z x x c v b W { ..............- @ + + @ @ @ @ @ + + + + + + + ",
"@ @ @ @ @ @ @ @ @ ..>.@ @ @ @ @ @ @ @ @ @ @ @ @ @ ............{ b ~ E n n k l k v ..............@ @ @ @ @ @ @ @ @ @ @ @ @ @ @ @ ",
"& & & & & @ & & & ;.>.: & & & & & & & & & & & & & , ..........k Q ..Q ....k n k k ..............@ @ @ @ @ @ @ @ & & @ @ @ @ & & ",
"& & & & & & & & 0 >.>.: & & & & & & & & & & ..................k Q ........b ! b k ..............& & & & & & & & & & & & & & & q ",
"& & & & & & & & m ;.>.> & & & & & & & & ........................{ ............................& & & & & & & & & & & & & & & _ >.",
"* * * * * * * * B >.>.u * * * * * * * ` P ..................................................& & & & & & & & & & & & & & & * ^ >.",
"* * * * * * * * 0 >.>.>.* * * * * * Y K K ............................................V & & & & & & & & * * & & & & & & & & M $.",
"= = = = = = = = = ..>.>...= = = = K K ` R P ................................> = * * * * = = = = * * * * * * * * * * * * * * = = ",
"= = = = = = = = = / >.>.>.>.F K K K K K ` P ........................P K K P = = = = = = = = = * * * * * * * * * * * * * * * = = ",
"= = = = = = = = = = y >.>.>.>.K K K K P P P ........................K [ K K K K = = = = = = = = = = * = = = * * * = = = * * * = ",
"= = = = = = = = = = = 9 >.>.>.;.R Y K R K Y ........................K K K Y P K K = = = * * * * * * * = = = * * * * = = = = * * ",
"= = = = = = = = = = = = 4 P >.>.>.>.>.>.K ..........................K K K K K S K K & & & & * & & & & & & & & & & & & & & & & & ",
"& & & & & & & & & & & & K K K K P >.>.>.>.;.........................Y K K K K K K K C & & & & & & & & & & & & & & & & & & & & & ",
"& & & & & & & & & & & & K f K K K K ..>.>.>.@.........................K K K K K K K K & & & & & & & & & & & & & & & & & & & & & ",
"& & & & & & & & & & & & K e K K K K K Y >.>.>...........................K K K K K K K A & & & & & & & & & & & & & & & & & & & & ",
"& & & & & & & & & & & & K K K K K K P ..>.>.>.............................K K K K K K K @ @ & & @ @ @ @ @ @ & & @ & & @ @ @ @ @ ",
"@ @ @ @ @ @ @ @ @ @ @ @ @ C R R [ ......>.>.>.o.............................Y K K K K K @ @ @ @ @ @ @ @ @ @ @ @ @ @ @ @ @ @ @ @ ",
"@ @ @ @ + + + + + + @ @ @ @ ..........@.>.>.>.................................+ + ; K K @ @ @ @ + + + @ @ @ @ @ @ @ @ @ + + + + ",
"+ + + + + + + + + + + + + + ..........>.o.>.>.................................+ + + + + + + + + + + + + + + + + + + + + + + + + ",
"+ + + + + + + + + + + + + + ..........@.>.>...................................O O O O O O + + + O O O O + + + + + + + + O + O O ",
"O O O O O O O O O O O O O O ) ..........>.>.................................O O O O O O O O O O O O O O O O O O O O O O O O O O ",
"O O O O O O O O O O O O O O t ..........>.>.................................O O O O O >.>.O O O O O O O O O O O O O O O O O O O ",
"O O O O O O O O O O O O O O O ..........>.>.....o.P K ....................O O O O O 5 >.>.O O O O O O O O O O O O O O O O O O O ",
"O O O O O O O O X X O O O O O ............>.>.>.>.>.>.....................O O O O O O J >.O O O O O O O O O O O O O O O O O O O ",
"O O O O O O O O O O O O O O ................>.>.>.>.;.....................O O O O O O f I O O O O O O O O O O O O O O O O O O O ",
"X X X X X X X X X X X X X X ..................@.;.;.....................X X X X X X X X X X X X X X X X X X X X X X X X X X X X ",
"2 X X X X X X X X X X X X X ......` ................................P P X X X X X X X X X X X X X X X X X X X X X X X X X X X X ",
">.X X X X X X X X X X X X ( ..R ..................................P K K X X X X X X X X X X X X X X X X X X X X X X X X X X X X ",
">.%.X X X X X X X X X X X | ..K P ............................Y K K K P X X X X X X X X X X X X X X X X X X X X X X X X X X X X ",
">.U X X X X X X X X X X X ' ....K Y ..........................R K [ K K X X X X X X X X X X X X X X X X X X X X X X X X X X X X ",
"X X X X X X X X X X X X X L ......K Y ..............................P K X X X X X X X X X X X X X X X X X X X X X X X X X X X X ",
"X X X X X X X X X X X X X d ......K K ......................X ' ......K X X X X X X X X X X X X X X X X X X X X X X X X X X X X ",
"X X X X X X X X X X X X X X ......K K X ..................X X X ......K X X X X X X X X X X X X X X X X X X X X X X X X X X X # ",
"X X X X X X X X X X X X X X T ....K K X X X 8 ........X X X X X d ....% X X X X X X X X X X X X X X X X X X X X X X X X X X D X.",
"X X X X X X X X X X X X X X X ' ..[ K X X X X X X X X X X X X X X X X X X X X X X X X X X X X X X X X X X X X X X X X X X X >.>.",
"X X X X X X X X X X X X X X X X X X X X X X X X X X X X X X X X X X X X X X X X X X X X X X X X X X X X X X X X X X X X X X O.-.",
"X X X X X X X X X X X X X X X X X X X X X X X X X X X X X X X X X X X X X X X X X X X X X X X X X X X X X X X X X X X X X X X X ",
"X X X X X X X X X X X X X X X X X X X X X X X X X X X X X X X X X X X X X X X X X X X X X X X X X X X X X X X X X X X X X X X X ",
"X X X X X X X X X X X X X X X X X X X X X X X X g $.X X X X X X X X X X X X X X X X X X X X X X X X X X X X X X X X X X X X X X ",
"X X X X X X X X X X X X X X X X X X X X X X X X >.>.X X X X X X X X X X X X X X X X X X X X X X X X X X X X X X X X X X X X X X ",
"X X X X X X X X X X X X X X X X X X X X X X X X.>.#.% X X X X X X X X X X X X X X X X X X X X X X X X X X X X X X X X X X X X X "
};
