/* XPM */
static char *_276f3f78ccc4347b4010d51e3449968nyWctBUxJl1G9Z95[] = {
/* columns rows colors chars-per-pixel */
"64 64 159 2 ",
"   c #000000",
".  c gray3",
"X  c #121415",
"o  c #08223C",
"O  c #222426",
"+  c #27292B",
"@  c #292C2E",
"#  c #313437",
"$  c #082542",
"%  c #0A2846",
"&  c #092B4B",
"*  c #132C45",
"=  c #112D4A",
"-  c #13314E",
";  c #1C344C",
":  c #092E53",
">  c #092F58",
",  c #0A3056",
"<  c #093158",
"1  c #133353",
"2  c #1B3752",
"3  c #183856",
"4  c #11365B",
"5  c #13395D",
"6  c #1C3C5B",
"7  c #21384E",
"8  c #3A3E40",
"9  c #243D55",
"0  c #283F56",
"q  c #263A5A",
"w  c #213E5A",
"e  c #183E63",
"r  c #1D405E",
"t  c #3D4143",
"y  c #234256",
"u  c #2A4056",
"i  c #24415C",
"p  c #2B4158",
"a  c #31475D",
"s  c #38545B",
"d  c #1B4165",
"f  c #224263",
"g  c #2C4462",
"h  c #2B4B6A",
"j  c #344B61",
"k  c #3A4E61",
"l  c #3C5166",
"z  c #36506B",
"x  c #3E556A",
"c  c #47415A",
"v  c #425C5B",
"b  c #475867",
"n  c #41566A",
"m  c #4A5B6C",
"M  c #5A5E62",
"N  c #435C72",
"B  c #4C5E71",
"V  c #765162",
"C  c #5B6164",
"Z  c #4A6177",
"A  c #4E6479",
"S  c #576776",
"D  c #56697B",
"F  c #5B6D7D",
"G  c #6B7D62",
"H  c #686E72",
"J  c #606E78",
"K  c #64727D",
"L  c #68757F",
"P  c #825565",
"I  c #AE777E",
"U  c #C5696C",
"Y  c #D26D6D",
"T  c #D2716D",
"R  c #7D8A63",
"E  c #9BA367",
"W  c #D2836D",
"Q  c #D2926D",
"!  c #D2CE6D",
"~  c #576C81",
"^  c #5C7183",
"/  c #5E7691",
"(  c #677583",
")  c #6D7982",
"_  c #6B7C8A",
"`  c #747E86",
"'  c #788084",
"]  c #778188",
"[  c #7B848B",
"{  c #7F898F",
"}  c #688095",
"|  c #7F8B94",
" . c #768898",
".. c #7C8A98",
"X. c #848D93",
"o. c #818E9C",
"O. c #879096",
"+. c #87949E",
"@. c #8B959B",
"#. c #8F989E",
"$. c #919A9F",
"%. c #8493A1",
"&. c #8B97A2",
"*. c #8E9AA5",
"=. c #949DA4",
"-. c #929FAB",
";. c #B99EA3",
":. c #97A0A6",
">. c #99A1A7",
",. c #95A1AC",
"<. c #9BA4AB",
"1. c #9FA8AE",
"2. c #96A4B1",
"3. c #9FA9B2",
"4. c #A0AAAF",
"5. c #A3ADB3",
"6. c #A5AFB8",
"7. c #A8B0B7",
"8. c #A7B1BB",
"9. c #ABB4BA",
"0. c #ADB6BC",
"q. c #ADB6BE",
"w. c #AFB9BF",
"e. c #B0B9BF",
"r. c #C88183",
"t. c #C18F92",
"y. c #AEB9C2",
"u. c #B1BAC1",
"i. c #B3BCC3",
"p. c #B3BDC4",
"a. c #B3BEC4",
"s. c #B7C1C7",
"d. c #B7C1C8",
"f. c #B9C2C9",
"g. c #BBC5CC",
"h. c #BEC9CF",
"j. c #BFCAD1",
"k. c #C0C8CF",
"l. c #C2CDD4",
"z. c #C5D0D7",
"x. c #C6D1D9",
"c. c #CAD5DD",
"v. c #CCD8DF",
"b. c gray84",
"n. c #D2D6DB",
"m. c #D5DADF",
"M. c #DEDFDF",
"N. c #CCD7E0",
"B. c #CCD9E0",
"V. c #D9DDE1",
"C. c #DFE2E6",
"Z. c #E7E8EA",
"A. c #EAECEE",
"S. c #EDEFF1",
"D. c #F2F4F5",
"F. c #F6F7F8",
"G. c #F7F8F9",
"H. c #FEFEFE",
"J. c white",
/* pixels */
"o o o o o o o o o o o o o o o o o o o o o o o o o o o o o o o o o o o =.F o o o o o o o o o o o o o o o o o o o o o o o o o o o ",
"o o o o o o o o o o o o o o o o o o o o o o o o o o o o o o o o o o D J.J.o o o o o o o o o o o o o o o o o o o o o o o o o o o ",
"o o o o o o o o o o o o o o o o o o o o o o o o o o o o o o o o o o m p.l.o o o o o o o o o o o o o o o o o o o o o o o o o o o ",
"o o o o o o o o o o o o o o o o o o o o o o o o o o o o o o o o o o * p o o o o o o o o o o o o o o o o o o o o o o o o o o o o ",
"o o o o o o o o o o o o o o o o o o o o o o o o o o o o o o o o o o o o o o o o o o o o o o o o o o o o o o o o o o o o o o o o ",
"o o o o o o o o o o o o o o o o o o o o o o o o o o o o o o o o o o o o o o o o o o o o o o o o o o o o o o o o o o o o o o o o ",
"o o o o o o o o o o o o o o o o o o o o o o o o o o o o o o o o o o o o o o o o o o o o o o o o o o o o o o o o o o o o o o o o ",
"o o o o o o o o o ; ( o o o o o o o o o o *.o o o o o o o o o o o o o o o o o o o o o o o o o o o o o o o o o o o o o o o o o o ",
"o o o o o o o o o J.J.0 o o o o o o o o B 9.6.o o o o o o o o o o o o o o o o o o o o o o o o o o o o o o o o o o o o o o o o o ",
"o o o o o o o o o J.J.a o o o o o o o o 0 9.9.6.o o o o o o o o o o o o o o o o o o o o o o o o o o o o o o o o o o o o o o o o ",
"o o o o o o o o o * ,.o o o o o o o o o ; 9.9.9.5.o o o o o o o o o o o o o o o o o o o o o o o o o o o o o o o o o o o o o o o ",
"o o o o o o o o o o o o o o u u B D o o ; 9.9.9.9.=.o o o o o o o o o o o o o o o o o o o o o o o o o o o o o o o o o o o o o o ",
"o o o o o o o o o o o o J.J.J.J.J.o.o o ; 9.9.9.9.9.+.m ] L ; o o o o o o o o o o o o o o o o o o o o o o o o o o o o o o o o o ",
"o o o o o o o o o o o o o o o o o o o o ; 9.9.9.9.9.9.[ [ [ [ [ ` o o o o o o o o o o o o o o o o o o A.J.o o o o o o o o o o o ",
"o o o o o o o o o o o o o o o J.J.J.F o ; 9.9.9.9.9.9.9.[ [ [ [ [ o o o o o o o o o o o o o o o o o o C.J.l o o o o o o o o o o ",
"o o o o o o o o o o o o o o o o o o o o ; 9.9.9.9.9.9.9.4.[ [ [ [ $ o o o o o o o o o o o o o o o o o J.J.S.o o o o o o o o o o ",
"$ $ $ $ $ $ $ $ $ $ $ $ $ $ $ $ $ $ $ $ ; 9.9.9.9.9.9.9.9.[ L k = $ $ $ $ $ $ $ $ $ $ $ $ $ $ $ $ $ $ $ h.9 $ $ $ $ $ $ $ $ $ $ ",
"$ $ $ $ $ $ $ $ $ $ $ $ $ $ $ $ $ $ $ $ ; 9.9.9.9.9.9.9.9.9.x $ $ $ $ $ $ $ $ o $ $ $ $ $ $ $ $ $ $ $ $ $ $ $ $ $ $ $ $ $ $ $ $ ",
"$ $ $ $ $ $ $ $ $ $ $ $ $ $ $ $ $ $ $ $ 2 9.9.9.9.9.9.9.9.9.9.$ $ $ $ $ $ $ $ $ $ $ $ $ $ $ $ $ $ $ $ $ $ $ $ $ $ $ $ $ $ $ $ $ ",
"k.$ $ $ $ $ $ $ $ $ $ $ $ $ $ $ $ $ $ $ 2 9.9.9.9.9.9.9.9.9.9.5.$ $ $ $ $ $ $ $ $ $ $ $ $ $ $ $ $ $ $ $ $ $ $ $ $ $ $ $ $ $ $ $ ",
"J.m.$ $ $ $ $ $ $ $ $ $ $ $ % % % % % % 9 9.9.9.9.9.9.9.9.9.9.9.<.% % % % % % % % % % $ % % % % $ $ $ $ $ $ $ $ $ $ $ $ $ $ % $ ",
"J.J.% % % % $ % % % % % % % % & & & & & N 9.9.9.9.9.9.9.9.9.9.q.q.3.& & & & & & & = & = & & & % % % $ $ $ $ $ $ $ $ $ $ % % % % ",
"& 6 & & & & & & & & & & & w A ^ ^ N g i ~ q.q.q.6.6.5.6.5.5.5.4.1.,.| l x n S K ( ) F n j 1 & & & & & & & & & & & & & & & & & & ",
"& & & & & & & & & & & & & 9.q.q.q.w.e.u.w.e.e.e.7.6.5.1.>.:.=.#.@.@.O.X.X.O.X.X.X.X.O.| F x w 1 1 : & & & & & & & & & & & & & & ",
"& & & & & & & & & & & : , q.e.e.u.i.i.i.p.p.p.p.p.p.i.u.9.6.7.9.6.5.5.5.5.9.q.q.w.w.q.q.9.9.q.q. .f 1 , : & & & & & & & & & & & ",
": : : : : : : : : : : , 4 q.u.i.p.s.f.f.f.f.f.f.p.i.i.u.i.i.7.7.6.8.q.i.p.d.d.d.s.s.p.f.s.p.p.i.u.w.9.f , : & : & & : : & & & & ",
": : : : : : : : : : Y Y Y q.i.s.f.h.h.h.j.j.j.j.g.f.d.f.p.q.9.y.f.h.j.j.j.h.j.j.j.6.6.h.h.h.g.f.p.p.u.e.q., , : : : : : : : : h ",
": : : : : : : E ! ! T Y Y t.p.f.h.l.l.l.l.z.l.l.l.l.l.g.i.u.z.l.z.z.l.l.l.z.l.i.          + h.h.g.d.p.u.e.q.4 , : : : : : : h.J.",
", , , , , , , R E G Q Y Y r.p.h.l.l.z.z.c.x.v.v.v.v.v.l.h.v.v.v.v.v.c.x.x.v.v.8               H j.h.d.i.u.q.8., , : : : : , y.J.",
", , , , , , , , , < P U Y y.p.h.l.z.v.v.v.v.v.v.v.v.v.v.v.v.v.v.v.v.v.v.v.v.v.v.h.v.O b.Z.      ' j.h.s.i.w.q.< < > : : : : / S.",
"< < < < < < < < < < < 5 d q.p.h.l.z.v.v.v.v.v.B.B.B.N.v.N.N.B.B.N.B.B.B.B.B.B.B.v.B.h.J.J.p.+     l.j.f.p.u.q.4 < < , , , , < < ",
"< < < < < < < < < < < 4 e 2.p.h.l.z.v.v.N.N.N.B.B.B.N.N.N.N.N.B.N.N.B.B.B.B.B.B.B.B.B.M.J.B.N..   z.l.h.s.u.w.4 < < , , , , < < ",
"< < < < < < < < < < < < e } p.h.l.z.v.v.B.B.B.B.B.B.B.B.B.B.B.B.B.B.B.B.B.B.B.B.B.B.B.B.B.B.B.v.v.z.l.h.s.q.q.5 < < , , < < , < ",
"< < < < < < < < < < < < e ,.p.g.j.z.v.v.B.B.B.B.B.B.B.B.B.B.B.B.B.B.B.B.B.B.B.B.B.B.B.B.B.B.N.v.v.z.l.h.p.5.1.5 < , , , < < < < ",
"< < < < < < < < < < < q g q.p.h.j.l.c.v.v.v.B.B.B.B.B.B.B.B.B.B.B.B.B.B.B.B.N.N.B.B.B.B.B.v.v.v.x.z.d.=.=.1.,.4 < , : : : : : : ",
": : : : : : : : v s Y Y Y t.p.g.h.l.z.v.v.v.v.v.v.N.B.B.v.B.B.B.B.B.B.B.B.B.B.N.B.N.v.v.v.v.v.z.u.1.=.=.=.=.f 4 , , : : : : : : ",
": : : : : : : y ! ! W Y Y ;.u.s.h.l.z.z.c.v.v.v.v.v.v.v.v.v.v.v.v.v.v.v.v.v.v.X.    9.v.c.l.q.u.:.=.=.1.=.+.5 < : : : : : : : : ",
": : : : : : : : y v Y Y Y I u.p.f.j.l.l.z.z.z.z.z.z.x.x.c.v.x.v.v.v.v.v.v.c.v.O       C 5.h.3.=.=.=.>.>.*.e 4 , : : : : : : : : ",
": : : : : : : : : : c q V ~ u.i.p.g.h.h.j.l.l.l.l.l.l.z.z.l.l.z.z.z.z.z.z.z.z.l.5.        M 5.5.4.<.4.A r 1 , : : : : & & & & & ",
"& & & & & & & & & & & & , ,.q.u.u.p.s.f.f.g.h.h.h.h.h.h.j.j.j.l.l.l.l.l.l.l.j.p.>.1.$.X   @ # t 6.( z 6 1 , : & & & & & & & & & ",
"& & & & & & & & & & & & & 9.q.q.u.u.i.p.p.p.p.s.d.f.f.f.f.f.g.g.g.g.h.i.:.=.#.#.#.#.#.5.>..   a i 6 1 1 & & & & & & & & & & & & ",
"& & & & & & & & & & & & & & i Z -.q.e.w.u.u.u.u.u.i.i.p.>.$.>.u.u.6.>.#.O.X.[ [ [ [ [ [ %.i 6 3 1 1 & & & & & & & & & & & & & & ",
"& % % % % % % % % % % % & & & & & - - - 1 1 9.w.w.w.y.e.@.{ [ [ [ [ [ [ [ [ [ [ [ [ ] F 2 1 - & & & & & & $ $ $ % % $ $ $ $ $ $ ",
"$ $ $ $ $ $ $ $ $ $ $ $ $ % % % % & & % & & 5.q.q.q.q.q.6.<.=.| [ [ X.X.] ` ] n - - - = & & % % % % % $ $ $ $ $ $ $ $ $ $ $ $ $ ",
"$ $ $ $ $ $ $ $ $ $ $ $ $ $ $ $ $ $ $ % % % *.9.9.9.9.9.4.5.9.1.=.6.9.F = = & % % % % J.J.% $ $ $ $ $ $ $ $ $ $ $ $ $ $ $ $ $ $ ",
"$ $ $ $ $ $ $ $ $ $ $ $ $ $ $ $ $ $ $ $ $ $ *.9.9.9.9.9.1.<.5.=.=.9._ % % % $ $ $ $ u J.J.$ $ $ $ $ $ $ $ $ $ $ $ $ $ $ $ $ $ $ ",
"$ $ $ $ $ $ $ $ o $ $ $ $ $ $ $ $ $ $ $ $ $ *.9.9.9.9.9.>.>.>.:.1.=.$ $ $ $ $ $ $ $ $ 3.J.$ $ $ $ $ $ $ $ $ $ $ $ $ $ $ $ $ $ $ ",
"$ $ $ $ $ $ $ $ $ $ $ $ $ $ $ $ $ $ $ $ $ $ <.9.9.9.9.9.=.=.1.1.3.$ $ $ $ $ $ $ $ $ $ D 8.$ $ $ $ $ $ $ $ $ $ $ $ $ $ $ $ $ $ $ ",
"o o o o o o o o o o %.m.A.A.D.F.G.J.J.D.* o 7.9.9.9.9.<.=.:.7.X.` [ [ J o o o o o o o o o o o o o o o o o o o o o o o o o o o o ",
"0 o o o o o o o o o ; Z.l.5...F n * * o o o 9.9.9.9.9.=.=.7.[ [ [ [ [ [ ] o o o o o o o o o o o o o o o o o o o o o o o o o o o ",
"J.o o o o o o o o o o o o o o o o o o * o o 9.9.9.9.9.9.6.[ [ [ [ [ [ [ [ o o o o o o o o o o o o o o o o o o o o o o o o o o o ",
"J.D.o o o o o o o o o o o o o J.J.J.J.J.o o 9.9.9.9.9.9.[ [ [ [ [ [ [ [ b o o o o o o o o o o o o o o o o o o o o o o o o o o o ",
"J.9.o o o o o o o o o o o o o o o o o o o o 9.9.9.9.9.* 7 ` [ [ [ ) u o o o o o o o o o o o o o o o o o o o o o o o o o o o o o ",
"o o o o o o o o o o o o o o o o o o o o o o 9.9.9.j o o o o o o o o o o o o o o o o o o o o o o o o o o o o o o o o o o o o o o ",
"o o o o o o o o o o o o o o o o o o o o o o &.9._ o o o o o o o o o o o o o o o o o o o o o o o o o o o o o o o o o o o o o o o ",
"o o o o o o o o o o o o o o o o o o o o o o o 9.o o o o o o o o o o o o o o o o o o o o o o o o o o o o o o o o o o o o o o o * ",
"o o o o o o o o o o o o o o o o o o o o o o o o o o o o o o o o o o o o o o o o o o o o o o o o o o o o o o o o o o o o o o *.n.",
"o o o o o o o o o o o o o o o o o o o o o o o o o o o o o o o o o o o o o o o o o o o o o o o o o o o o o o o o o o o o o o J.J.",
"o o o o o o o o o o o o o o o o o o o o o o o o o o o o o o o o o o o o o o o o o o o o o o o o o o o o o o o o o o o o o o V.G.",
"o o o o o o o o o o o o o o o o o o o o o o o o o o o o o o o o o o o o o o o o o o o o o o o o o o o o o o o o o o o o o o o o ",
"o o o o o o o o o o o o o o o o o o o o o o o o o o o o o o o o o o o o o o o o o o o o o o o o o o o o o o o o o o o o o o o o ",
"o o o o o o o o o o o o o o o o o o o o o o o o F S.o o o o o o o o o o o o o o o o o o o o o o o o o o o o o o o o o o o o o o ",
"o o o o o o o o o o o o o o o o o o o o o o o o J.J.o o o o o o o o o o o o o o o o o o o o o o o o o o o o o o o o o o o o o o ",
"o o o o o o o o o o o o o o o o o o o o o o o n.J.A.; o o o o o o o o o o o o o o o o o o o o o o o o o o o o o o o o o o o o o "
};
