/* XPM */
static char *_d25bf016de64e6bb19ea5e66a0b42d4eKYAsncPwMZd8FmZ[] = {
/* columns rows colors chars-per-pixel */
"64 64 69 1 ",
"  c #08223C",
". c #09243E",
"X c #082440",
"o c #092644",
"O c #082747",
"+ c #082846",
"@ c #082948",
"# c #0C2B49",
"$ c #08294C",
"% c #082C4E",
"& c #122B44",
"* c #142D45",
"= c #19324A",
"- c #1C344C",
"; c #082D50",
": c #0D2F50",
"> c #082E54",
", c #092F57",
"< c #093056",
"1 c #093158",
"2 c #143454",
"3 c #17395D",
"4 c #1A3959",
"5 c #1F3D59",
"6 c #1A3D5E",
"7 c #213A53",
"8 c #273E55",
"9 c #283F56",
"0 c #264059",
"q c #2B4158",
"w c #32475E",
"e c #2B4B6A",
"r c #2E4C69",
"t c #3B5065",
"y c #3F5B76",
"u c #495C6F",
"i c #57697B",
"p c #55697C",
"a c #5A6C7D",
"s c #5D6E7F",
"d c #5E7691",
"f c #647485",
"g c #8293A4",
"h c #8F9AA6",
"j c #909BA7",
"k c #97A3AD",
"l c #9FAAB5",
"z c #A7B1BB",
"x c #A9B2BB",
"c c #AEBAC7",
"v c #B5BDC5",
"b c #B9C4CE",
"n c #BDC5CC",
"m c #C0C8CF",
"M c #C5CBD1",
"N c #D0D5DA",
"B c #D3D7DC",
"V c #D1D8DF",
"C c #D4DADF",
"Z c #D9DDE1",
"A c #DFE2E6",
"S c #E9EBED",
"D c #EBEDEF",
"F c #EEEFF1",
"G c #F2F3F4",
"H c #F2F4F6",
"J c #F7F8F9",
"K c #FBFCFC",
"L c white",
/* pixels */
"                                   ja                           ",
"                                  iLL                           ",
"                                  uvM                           ",
"                                  *q                            ",
"                                                                ",
"                                                                ",
"                                                                ",
"         -f                                                     ",
"         LL8                                                    ",
"         LLw                                                    ",
"         *k                                                     ",
"                                                                ",
"                                                                ",
"                                                   DL           ",
"                                                   ALt          ",
".......................................            KLF          ",
"XXXXXXXXXXXXXXXXXXXXXXXXXXXXXXXXXXXXXXXXXXXXXXXXXXXXn7XXXXXXXXXX",
"XXXXXXXXXXXXXXXXXXXXXXXXXXXXXXXXXXXXXXXXXXXXXXXXXXXXXXXXXXXXXXXX",
"XXXXXXXXXXXXXXXXXXXXXXXXXXXXXXXXXXXXXXXXXXXXXXXXXXXXXXXXXXXXXXXX",
"moooooooooooooooooooooooooooooooooXXXXXXXXXXooooXXooooXXooXoXooX",
"LCooooooooooooooooooooooooooooooooooooXXooXXXX++XoXXXXXXoXXXXXXo",
"LL++++++++++++++++++++++++++#+++++++++ooooo+oo++oooooooooooooooo",
"@5@@@@@@@@@@@@@@@@@@@@@@@@@@LL@@@@@@@@@@@@@@@@@@@@@@@@@@@@@@@@@@",
"$$$$$$$$$$$$$$$$$$$$$$$$$$$gLL4$$$$$$$$$$$$$@@$$$$$$$$$$$$$$@$$$",
"%%%%%%%%%%%%%%%%%%%%%%%%%%%yKL:$$$$$$$$$$$$$$$$$%%$$$$$$$$$$$$$$",
";;;;;;;;;;;;;;;;;;;;;;;;;;;%%%%%%%%%%%%%%%%;;;%%;;%%%%;;;;;;%%%;",
";;;;;;;;;;;;;;;;;;;;;;;;;;;;;;;;;;;;;;;;;;;;;;;;;;;;;;;;;;;;;;;e",
">>>>>>>>>>>>>>>>>>>>>>>>>>>>>>>>>>>>>>>>>>>>>>>;>;;;>>>>>>>;;>bL",
"<<<<<<<<<<<<<<<<<<<<<<<<<<<<<<<<<<<<>>>>>>><>>>>>>>>>>>>>>>>><cL",
"<<<<<<<<<<<<<<<<<<<<<<<<<<<<<<<<<1<<<>>>>>>>>>>>>>>>>>>>>>>>>>dF",
"1111111111111111111111111111111111111<<<<<11<1<<<<<<<<<<<<<<<<1<",
"11111111111111111111111111111111111111111111<<<<<<<<<<<<<<<<<<11",
"11111111111111111111111111111111111111111111111111<<11<<<1111111",
"11111111111111111111111111111111111111111111<111<<11<1<<<<111111",
"1111111111111111111111111111111111111>>>>>>>>>>>>>>>>>>>>>>>>>>>",
">>>>>>>>>>>>>>>>>>>>>>>>>>>>>>>>>>>>>>>>>>>>>>>>>>>>>>>>>>>>>>>>",
">>>>>>>>>>>>>>>>V3>>>>>>>>>>>>>>>>>>>>>>>>>>>>>;>>>>>;>;;;>>>>;;",
";;;;;;;;;;;;;;;6LH;;;;;;;;;;;;;;;;;;;;;;;;;;;;;;;;;;;;;;;;;;;;;;",
";;;;;;;;;;;;;;;HLL;;;;;;;;;;;;;;;;;;;;;%%%;%;;;;;;%;%%;;%;;;%%%%",
"%%%%%%%%%%%%%%%rLL%%%%%%%%%%$$$$$$$$$$$$$$$$$$$$$$$$$$$$$$$$$$$$",
"@$$$@@@@@@@$$@@@@2@@@@$$@$$$@@@@@@@@$$$$$@@@@@@@$$$@@@$$@@@@$$$$",
"@@@@@@@@@@@@@@@@@@@@@@@@@@@@@@@@@@@@@@@@@@@@@@@@@@@@@@@@@@@@@@@@",
"++@@+@+++++++++++++++@@@++@@+@++++++@@oooooooooo@@oooooooooooooo",
"oooooooooooooooooooooooooooooooooooooooooooooooooooooooooooooooo",
"ooooooooooooooooooooooooooooooooooooXXXXXXXLLooooXXXXXoXooooXooX",
"XXXXXXXXXXXXXXXXXXXXXXXXXXXXXXXXXXXXXXXXXX0LLXXXXXXXXXXXXXXXXXXX",
"XXXXXXXXXXXXXXXXXXXXXXXXXXXXXXXXXXXXXXXXXXXlLXXXXXXXXXXXXXXXXXXX",
"XXXXXXXXXXXXXXXXXXXXXXXXXXXXXXXXXXXXXXXXXXXpzXXXXXXXXXXXXXXXXXXX",
".......................................                         ",
"9                                                               ",
"L.                                                              ",
"LG                                                              ",
"Lx                                                              ",
"                                                                ",
"                                                                ",
"                                                               &",
"                                                              hN",
"                                                              LL",
"                                                              ZJ",
"                                                                ",
"                                                                ",
"                        sF                                      ",
"                        LL.                                     ",
"                       BLS=                                     "
};
