/* XPM */
static char *_7fc84f2a2bc47f8db39c4940b51f16el3PyCgThCUJYktYo[] = {
/* columns rows colors chars-per-pixel */
"64 64 160 2 ",
"   c #08223C",
".  c #09243E",
"X  c #082440",
"o  c #092644",
"O  c #082747",
"+  c #082846",
"@  c #082948",
"#  c #0C2B49",
"$  c #08294C",
"%  c #082C4E",
"&  c #102C42",
"*  c #152F41",
"=  c #122B44",
"-  c #112C44",
";  c #142D45",
":  c #133147",
">  c #19324A",
",  c #183549",
"<  c #1C344C",
"1  c #1F3D4E",
"2  c #082D50",
"3  c #0D2F50",
"4  c #082E54",
"5  c #092F57",
"6  c #093056",
"7  c #0D3256",
"8  c #093158",
"9  c #0D3458",
"0  c #143454",
"q  c #17395D",
"w  c #1A3959",
"e  c #1F3D59",
"r  c #1A3D5E",
"t  c #223944",
"y  c #263D47",
"u  c #233D4B",
"i  c #243D4A",
"p  c #293F49",
"a  c #213A53",
"s  c #273E55",
"d  c #283F56",
"f  c #27404B",
"g  c #26404D",
"h  c #29434B",
"j  c #2E444A",
"k  c #2B444C",
"l  c #314749",
"z  c #334B4E",
"x  c #274451",
"c  c #224257",
"v  c #2B4158",
"b  c #2A4959",
"n  c #304B51",
"m  c #304D56",
"M  c #32475E",
"N  c #355053",
"B  c #3E5552",
"V  c #3A5557",
"C  c #2B4B6A",
"Z  c #2E4C69",
"A  c #3B5065",
"S  c #3F5B76",
"D  c #42554C",
"F  c #46594F",
"G  c #4F6156",
"H  c #53685B",
"J  c #576959",
"K  c #657659",
"L  c #677A5E",
"P  c #495C6F",
"I  c #4D6962",
"U  c #5C766B",
"Y  c #57697B",
"T  c #55697C",
"R  c #5A6C7D",
"E  c #5D6E7F",
"W  c #6F8465",
"Q  c #7A8B64",
"!  c #7D8E6B",
"~  c #798D6C",
"^  c #828E60",
"/  c #808F67",
"(  c #8A9662",
")  c #8B9867",
"_  c #8F9A65",
"`  c #859568",
"'  c #939E65",
"]  c #9DA669",
"[  c #93A170",
"{  c #96A371",
"}  c #94A272",
"|  c #94A475",
" . c #ABB36B",
".. c #B0B86D",
"X. c #AFB978",
"o. c #B0BA78",
"O. c #B1BD7E",
"+. c #B5C07B",
"@. c #C4C872",
"#. c #C9CF7D",
"$. c #CFD173",
"%. c #CFD47B",
"&. c #D0D273",
"*. c #D1D274",
"=. c #D3D575",
"-. c #D5D776",
";. c #D9DB7A",
":. c #DBDD7C",
">. c #DCDE7C",
",. c #DFE17E",
"<. c #E0E27F",
"1. c #5E7691",
"2. c #647485",
"3. c #8293A4",
"4. c #8F9AA6",
"5. c #909BA7",
"6. c #97A3AD",
"7. c #9FAAB5",
"8. c #A7B1BB",
"9. c #A9B2BB",
"0. c #B7C382",
"q. c #BECA83",
"w. c #C6CF84",
"e. c #CDD382",
"r. c #D7DD87",
"t. c #DCE287",
"y. c #D9E088",
"u. c #E3E481",
"i. c #E8EA85",
"p. c #E1E689",
"a. c #E2E88C",
"s. c #E9ED8C",
"d. c #EEF089",
"f. c #F2F38B",
"g. c #F3F790",
"h. c #F5F890",
"j. c #F9FC92",
"k. c #FDFF93",
"l. c #FDFF94",
"z. c #AEBAC7",
"x. c #B5BDC5",
"c. c #B9C4CE",
"v. c #BDC5CC",
"b. c #C0C8CF",
"n. c #C5CBD1",
"m. c #D0D5DA",
"M. c #D3D7DC",
"N. c #D1D8DF",
"B. c #D4DADF",
"V. c #D9DDE1",
"C. c #DFE2E6",
"Z. c #E9EBED",
"A. c #EBEDEF",
"S. c #F6F6E9",
"D. c #EEEFF1",
"F. c #F2F3F4",
"G. c #F2F4F6",
"H. c #F7F8F9",
"J. c #FBFCFC",
"K. c white",
/* pixels */
"                                                                      5.R                                                       ",
"                                                                    Y K.K.                                                      ",
"                                                                    P x.n.                                                      ",
"                                                                    ; v                                                         ",
"                                                                                                                                ",
"                                                                                                                                ",
"                                                                                                                                ",
"                  < 2.                                                                                                          ",
"                  K.K.s                                                           j.l                                           ",
"                  K.K.M                                                         y k.k.                                          ",
"                  ; 6.                                                          y k.o.                                          ",
"                                                                                X.k.j.                                          ",
"                                                                                k.k.i.t                                         ",
"                                                                              / k.k.k.u.              A.K.                      ",
"                        j.k.                                                  k.k.k.k.i._             C.K.A                     ",
". . . . . . . . . . . . j.k.. . . . . . . . . . . . . . . . . . . . . . . . e.k.k.k.k.k.;.l           J.K.D.                    ",
"X X X X X X X X X X X t.k.k.,.F X X X X X X X X X X X X X X X X X X X X X J k.k.k.k.k.k.f.&.j X X X X X v.a X X X X X X X X X X ",
"X X X X X X X X X X k.k.k.d.&.&.h X X X X X X X X X X X X X X X X X X X k k.k.k.k.k.k.k.k.d.&. .X X X X X X X X X X X X X X X X ",
"X X X X X X X X X X u +.j.&.( ^ X X X X X X X X X X X X X X X X X X X i k.k.k.k.k.k.k.k.k.k.,.&.&.%.- X X X X X X X X X X X X X ",
"b.o o o o o o o o o o o j.&.o o o o o o o o o o o o o o o o o o o o [ k.k.k.k.k.k.k.k.k.k.k.k.&.&.&.*.*.} + X X o o X o X o o X ",
"K.B.o o o o o o o o o o j.&.o o o o o o o o o o o o o o o o o o o r.k.k.k.k.k.k.k.k.k.k.k.k.k.j.&.&.&.&.*.-.g X o X X X X X X o ",
"K.K.+ + + + + + + + + + } ' + + + + + + + + + + + + + + # + + + j.k.k.k.k.k.k.k.k.k.k.k.k.k.k.-.&.&.&.&.&.&.B o o o o o o o o o ",
"@ e @ @ @ @ @ @ @ @ @ @ @ @ @ @ @ @ @ @ @ @ @ @ @ @ @ @ K.K.@ @ k.k.k.k.k.k.k.k.k.k.k.k.k.k.j.&.&.&.&.&.&.&.1 @ @ @ @ @ @ @ @ @ ",
"$ $ $ $ $ $ $ $ $ $ $ $ $ $ $ $ $ $ $ $ $ $ $ $ $ $ $ 3.K.K.w $ $ $ O.k.k.k.k.k.k.k.k.k.k.k.=.&.&.&.] @ $ $ $ $ $ $ $ $ @ $ $ $ ",
"% % % % % % % % % % % % % % % % % % % % % % % % % % % S J.K.3 $ $ $ $ | k.k.k.k.k.k.k.k.k.k.&.&.&.m $ $ $ $ $ $ $ $ $ $ $ $ $ $ ",
"2 2 2 2 2 2 2 2 2 2 2 2 2 2 2 2 2 2 2 2 2 2 2 2 2 2 2 % % % % % % % % % a.k.k.k.k.k.k.k.k.j.&.&.Q % % % 2 2 2 2 2 2 2 2 % % % 2 ",
"2 2 2 2 2 2 2 2 2 2 2 2 2 2 2 2 2 2 2 2 2 2 2 2 2 2 2 2 2 2 2 2 2 2 2 2 2 k.k.k.k.k.k.k.k.:.&.&.2 2 2 2 2 2 2 2 2 2 2 2 2 2 2 C ",
"4 4 4 4 4 4 4 4 4 4 4 4 4 4 4 4 4 4 4 4 4 4 4 4 4 4 4 4 4 4 4 4 4 4 4 4 4 Z k.k.k.k.k.k.k.&.&.b 2 2 2 2 4 4 4 4 4 4 4 2 2 4 c.K.",
"6 6 6 6 6 6 6 6 6 6 6 6 6 6 6 6 6 6 6 6 6 6 6 6 6 6 6 6 6 6 6 6 6 6 6 6 4 4 k.k.k.k.k.k.>.&.` 4 4 4 4 4 4 4 4 4 4 4 4 4 4 6 z.K.",
"6 6 6 6 6 6 6 6 6 6 6 6 6 6 6 6 6 6 6 6 6 6 6 6 6 6 6 6 6 6 6 6 6 6 6 6 6 4 q.k.k.k.k.k.&.*.4 4 4 4 4 4 4 4 4 4 4 4 4 4 4 4 1.D.",
"8 8 8 8 8 8 8 8 8 8 8 8 8 8 8 8 8 8 8 8 8 8 8 8 8 8 8 8 8 8 8 8 8 8 8 8 8 6 9 k.k.k.k.j.*.W 6 6 6 6 8 6 8 8 8 6 6 6 6 6 6 6 8 6 ",
"8 8 8 8 8 8 8 8 8 8 8 8 8 8 8 8 8 8 8 8 8 8 8 8 8 8 8 8 8 8 8 8 8 8 8 8 8 8 8 k.k.k.k.-.&.8 8 6 6 6 8 8 6 6 6 6 6 6 6 6 6 6 8 8 ",
"8 8 8 8 8 8 8 8 8 8 8 8 8 8 8 8 8 8 8 8 8 8 8 8 8 8 8 8 8 8 8 8 8 8 8 8 8 8 8 k.k.k.k.*.&.8 8 8 8 8 6 6 8 8 6 6 6 8 8 8 8 8 8 8 ",
"8 8 8 8 8 8 8 8 8 8 8 8 8 8 8 8 8 8 8 8 8 8 8 8 8 8 8 8 8 8 8 8 8 8 8 8 8 8 8 0.k.k.k.&.I 6 6 6 6 6 8 8 6 8 6 6 6 6 8 8 8 8 8 8 ",
"8 8 8 8 8 8 8 8 8 8 8 8 8 8 8 8 8 8 8 8 8 8 8 8 8 8 8 8 8 8 8 8 8 8 8 8 8 4 4 U k.k.l.&.4 4 4 4 4 4 4 4 4 4 4 4 4 4 4 4 4 4 4 4 ",
"4 4 4 4 4 4 4 4 4 4 4 4 4 4 4 4 4 4 4 4 4 4 4 4 4 4 4 4 4 4 4 4 4 4 4 4 4 4 4 7 k.k.j.&.4 4 4 4 4 4 4 4 4 4 4 4 4 4 4 4 4 4 4 4 ",
"4 4 4 4 4 4 4 4 4 4 4 4 4 4 4 4 N.q 4 4 4 4 4 4 4 4 4 4 4 4 4 4 4 4 4 4 4 4 4 4 k.k.d.*.4 4 4 2 4 4 4 4 4 2 4 2 2 2 4 4 4 4 2 2 ",
"2 2 2 2 2 2 2 2 2 2 2 2 2 2 2 r K.G.2 2 2 2 2 2 2 2 2 2 2 2 2 2 2 2 2 2 2 2 2 2 k.k.i.$.2 2 2 2 2 2 2 2 2 2 2 2 2 2 2 2 2 2 2 2 ",
"2 2 2 2 2 2 2 2 2 2 2 2 2 2 2 G.K.K.b k.c 2 2 2 2 2 2 2 2 2 2 2 2 2 2 2 2 2 2 % k.k.i...2 2 2 2 2 2 % 2 % % 2 2 % 2 2 2 % % % % ",
"% % % % % % % % % % % % % % % Z K.K.w.k.c % % % % % % % $ $ $ $ $ $ $ $ $ $ $ $ j.k.>.) $ $ $ $ $ $ $ $ $ $ $ $ $ $ $ $ $ $ $ $ ",
"@ $ $ $ @ @ @ @ @ @ @ $ $ @ @ @ @ 0 k.k.~ @ @ @ @ $ $ $ @ @ @ @ @ @ @ @ $ $ $ $ g.k.=.L @ @ @ @ $ $ $ @ @ @ $ $ @ @ @ @ $ $ $ $ ",
"@ @ @ @ @ @ @ @ @ @ @ @ @ @ @ @ @ x k.k.k.V @ @ @ @ @ @ @ @ @ @ @ @ @ @ @ @ @ @ p.k.=.n @ @ @ @ @ @ @ @ @ @ @ @ @ @ @ @ @ @ @ @ ",
"+ + @ @ + @ + + + + + + + + + + + j.k.k.k.k.y.@ @ + @ @ + @ + + + + + + @ @ o o ! k.;.g o o o o @ @ o o o o o o o o o o o o o o ",
"o o o o o o o o o o o o o o o o N k.k.k.k.j.k.k.@.: o o o o o o o o o o o o o o , k.i.f o o o o o o o o o o o o o o o o o o o o ",
"o o o o o o o o o o o o o o o o k.k.k.k.k.k.k.<.&.$.i o o o o o o o o o X X X X X k.d.S.K.o o o o X X X X X o X o o o o X o o X ",
"X X X X X X X X X X X X X X X k.k.k.k.k.k.k.k.&.&.&.K X X X X X X X X X X X X X X H f.K.K.X X X X X X X X X X X X X X X X X X X ",
"X X X X X X X X X X X X X X X z k.k.k.k.k.k.j.&.-.X X X X X X X X X X X X X X X X X X 7.K.X X X X X X X X X X X X X X X X X X X ",
"X X X X X X X X X X X X X X X X X f k.k.k.k.=.&.& X X X X X X X X X X X X X X X X X X T 8.X X X X X X X X X X X X X X X X X X X ",
". . . . . . . . . . . . . . . . . . h.k.k.k.&.* . . . . . . . . . . . . . . .                                                   ",
"d                                   G k.k.d.D                                                                                   ",
"K..                                   k.k.,.                                                                                    ",
"K.F.                                  e.k.&.                                                                                    ",
"K.9.                                  h j.&.                                                                                    ",
"                                        s.@.                                                                                    ",
"                                        p.#.                                                                                    ",
"                                        J p                                                                                   = ",
"                                                                                                                            4.m.",
"                                                                                                                            K.K.",
"                                                                                                                            V.H.",
"                                                                                                                                ",
"                                                                                                                                ",
"                                                E D.                                                                            ",
"                                                K.K..                                                                           ",
"                                              M.K.Z.>                                                                           "
};
