/* XPM */
static char *ab18d0c4f2ad452fd0a55c7dbff57dfdBUuj04aKFfvvrkOy[] = {
/* columns rows colors chars-per-pixel */
"64 64 14 1 ",
"  c #04121F",
". c #041220",
"X c #041323",
"o c #041422",
"O c #051524",
"+ c #041729",
"@ c #05182B",
"# c #04182C",
"$ c #041A30",
"% c #041B33",
"& c #051D35",
"* c #061F38",
"= c #062038",
"- c #06203C",
/* pixels */
"                                                                ",
"                                                                ",
"                                                                ",
"                                                                ",
"                                                                ",
"                                                                ",
"                                                                ",
"                                                                ",
"......................................        ..                ",
".......................................        .                ",
"................................................................",
"................................................................",
"................................................................",
"................................................................",
"................................................................",
"ooooooooooooooooooooooooooooooooooooooo.........................",
"................................................................",
"OOOOOOOOOOOOOOOOOOOOOOOOOOOOOOOOOOOOOOOOOOOOOOOOOOOOOOOOOOOOOOOO",
"OOOOOOOOOOOOOOOOOOOOOOOOOOOOOOOOOOOOOOOOOOOOOOOOOOOOOOOOOOOOOOOO",
"OO++++OOOO++++OOOOOOOOOO+++++O+OOOOO+++++O+O++OO++OOOO++++OOOO++",
"++++++++++++++++++++++++++++++++++++++++++++++++++++++++++++++++",
"@#@#@@@@@#@#@@@@####@@@@@@@@@##@@@@@@@@@@@@@@@@@@@@@@@@@@@@@@@@@",
"################################################################",
"$$$$$$$$$$$$$$$$$$$$$$$$$$$$$$$$$$$$$$######$###################",
"$$$$$$$$$$$$$$$$$$$$$$$$$$$$$$$$$$$$$$$$$$$$$$$$$$$$$$$$$$$$$$$$",
"&&&&&&&&&&&&&&&&&&&&&&&&&&&&&&&&&&&&&&&&&&&&&&&&&&&&&&&&&&&&&&&&",
"&&&&&&&&&&==&&&&&&&&&&==&&&&&&&&&&==&&&&&&&&&&&&&&&&&&&&&&&&&&&&",
"========================================************************",
"================================================================",
"----------------------------------------------------------------",
"----------------------------------------------------------------",
"--------------------------------------------===---============--",
"--------------------------------------------=======---=====-===-",
"----------------------------------------------------------------",
"------------------------------------------------====--==----====",
"================================================******=====*****",
"==**********==**********==******==**********=***********=*******",
"&&&&&&&&&&&&&&&&&&&&&&&&&&&&&&&&&&&&&&&&&&&&&&&&&&&&&&&&&&&&&&&&",
"&&&&&&&&&&&&&&&&&&&&&&&&&&&&&&&&&&&&&&&&&&&&&&&&&&&&&&&&&&&&&&&&",
"$$$$$$$$$$$$$$$$$$$$$$$$$$$$$$$$$$$$$$$$$$$$$$$$$$$$$$$$$$$$$$$$",
"$$$$$$$$$$$$$$$$$$$$$$$$$$$$$$$$$$$$$$################$$##$$####",
"################################################################",
"@@@@@@@@@@@@@@@@@@@@@@@@@@@@@@@@@@@@@@@@@@@@@@@@@@@@@@@@@@@@@@@@",
"++++++++++++++++++++++++++++++++++++++++++++++++++++++++++++++++",
"OOOOO+O+++++OOOOO+O+++++OOOOOOO+OOOOO+++++O+++OOO+++++++OOOO++OO",
"OOOOOOOOOOOOOOOOOOOOOOOOOOOOOOOOOOOOOOOOOOOOOOOOOOOOOOOOOOOOOOOO",
"OOOOOOOOOOOOOOOOOOOOOOOOOOOOOOOOOOOOOOOOOOOOOOOOOOOOOOOOOOOOOOOO",
"................................................................",
"ooooooooooooooooooooooooooooooooooooooo.........................",
"................................................................",
"................................................................",
"................................................................",
"................................................................",
"................................................................",
".......................................                         ",
"......................................                          ",
"                                                                ",
"                                                                ",
"                                                                ",
"                                                                ",
"                                                                ",
"                                                                ",
"                                                                ",
"                                                                "
};
